<svg width="135" height="37" viewBox="0 0 135 37" fill="none" xmlns="http://www.w3.org/2000/svg">
<path fill-rule="evenodd" clip-rule="evenodd" d="M134.657 7.296V4H133.441V7.296H134.657ZM50.544 32.64V24.8H50.608C51.1627 25.6107 51.872 26.224 52.736 26.64C53.6 27.056 54.544 27.264 55.568 27.264C56.784 27.264 57.8453 27.0293 58.752 26.56C59.6587 26.0907 60.416 25.4613 61.024 24.672C61.632 23.8827 62.0853 22.976 62.384 21.952C62.6827 20.928 62.832 19.8613 62.832 18.752C62.832 17.5787 62.6827 16.4533 62.384 15.376C62.0853 14.2987 61.6267 13.3547 61.008 12.544C60.3893 11.7333 59.6107 11.0827 58.672 10.592C57.7333 10.1013 56.6133 9.856 55.312 9.856C54.288 9.856 53.3493 10.0587 52.496 10.464C51.6427 10.8693 50.9387 11.52 50.384 12.416H50.32V10.304H46V32.64H50.544ZM54.352 23.872C53.6267 23.872 53.008 23.7227 52.496 23.424C51.984 23.1253 51.5733 22.736 51.264 22.256C50.9547 21.776 50.7307 21.216 50.592 20.576C50.4533 19.936 50.384 19.2853 50.384 18.624C50.384 17.9413 50.448 17.28 50.576 16.64C50.704 16 50.9227 15.4347 51.232 14.944C51.5413 14.4533 51.9467 14.0533 52.448 13.744C52.9493 13.4347 53.5733 13.28 54.32 13.28C55.0453 13.28 55.6587 13.4347 56.16 13.744C56.6613 14.0533 57.072 14.4587 57.392 14.96C57.712 15.4613 57.9413 16.032 58.08 16.672C58.2187 17.312 58.288 17.9627 58.288 18.624C58.288 19.2853 58.224 19.936 58.096 20.576C57.968 21.216 57.7493 21.776 57.44 22.256C57.1307 22.736 56.7253 23.1253 56.224 23.424C55.7227 23.7227 55.0987 23.872 54.352 23.872ZM73.2418 26.816C72.2605 27.1147 71.2578 27.264 70.2338 27.264C69.4445 27.264 68.7085 27.168 68.0258 26.976C67.3432 26.784 66.7458 26.4853 66.2338 26.08C65.7218 25.6747 65.3218 25.1627 65.0338 24.544C64.7458 23.9253 64.6018 23.1893 64.6018 22.336C64.6018 21.3973 64.7672 20.624 65.0978 20.016C65.4285 19.408 65.8552 18.9227 66.3778 18.56C66.9005 18.1973 67.4978 17.9253 68.1698 17.744C68.8418 17.5627 69.5192 17.4187 70.2018 17.312C70.8845 17.2053 71.5565 17.12 72.2178 17.056C72.8792 16.992 73.4658 16.896 73.9778 16.768C74.4898 16.64 74.8952 16.4533 75.1938 16.208C75.4925 15.9627 75.6312 15.6053 75.6098 15.136C75.6098 14.6453 75.5298 14.256 75.3698 13.968C75.2098 13.68 74.9965 13.456 74.7298 13.296C74.4632 13.136 74.1538 13.0293 73.8018 12.976C73.4498 12.9227 73.0712 12.896 72.6658 12.896C71.7698 12.896 71.0658 13.088 70.5538 13.472C70.0418 13.856 69.7432 14.496 69.6578 15.392H65.1138C65.1778 14.3253 65.4445 13.44 65.9138 12.736C66.3832 12.032 66.9805 11.4667 67.7058 11.04C68.4312 10.6133 69.2472 10.3093 70.1538 10.128C71.0605 9.94667 71.9725 9.856 72.8898 9.856C73.7218 9.856 74.5645 9.91467 75.4178 10.032C76.2712 10.1493 77.0498 10.3787 77.7538 10.72C78.4578 11.0613 79.0338 11.536 79.4818 12.144C79.9298 12.752 80.1538 13.5573 80.1538 14.56V23.168C80.1538 23.9147 80.1965 24.6293 80.2818 25.312C80.3672 25.9947 80.5165 26.5067 80.7298 26.848H76.1218C76.0365 26.592 75.9672 26.3307 75.9138 26.064C75.8605 25.7973 75.8232 25.5253 75.8018 25.248C75.0765 25.9947 74.2232 26.5173 73.2418 26.816ZM71.9298 24.256C71.5672 24.256 71.2152 24.224 70.8738 24.16C70.5325 24.096 70.2338 23.984 69.9778 23.824C69.7218 23.664 69.5192 23.4453 69.3698 23.168C69.2205 22.8907 69.1458 22.5493 69.1458 22.144C69.1458 21.7173 69.2205 21.3653 69.3698 21.088C69.5192 20.8107 69.7165 20.5813 69.9618 20.4C70.2072 20.2187 70.4952 20.0747 70.8258 19.968C71.1565 19.8613 71.4925 19.776 71.8338 19.712C72.1965 19.648 72.5592 19.5947 72.9218 19.552C73.2845 19.5093 73.6312 19.456 73.9618 19.392C74.2925 19.328 74.6018 19.248 74.8898 19.152C75.1778 19.056 75.4178 18.9227 75.6098 18.752V20.448C75.6098 20.704 75.5832 21.0453 75.5298 21.472C75.4765 21.8987 75.3325 22.32 75.0978 22.736C74.8632 23.152 74.5005 23.5093 74.0098 23.808C73.5192 24.1067 72.8258 24.256 71.9298 24.256ZM89.5397 31.776C88.665 32.352 87.449 32.64 85.8917 32.64C85.4224 32.64 84.9584 32.624 84.4997 32.592C84.041 32.56 83.577 32.5227 83.1077 32.48V28.736C83.5344 28.7787 83.9717 28.8213 84.4197 28.864C84.8677 28.9067 85.3157 28.9173 85.7637 28.896C86.361 28.832 86.8037 28.5973 87.0917 28.192C87.3797 27.7867 87.5237 27.3387 87.5237 26.848C87.5237 26.4853 87.4597 26.144 87.3317 25.824L81.5397 10.304H86.3717L90.1157 21.632H90.1797L93.7957 10.304H98.4997L91.5877 28.896C91.097 30.24 90.4144 31.2 89.5397 31.776ZM104.59 27.232C105.379 27.232 106.104 27.136 106.766 26.944C107.427 26.752 108.019 26.4853 108.542 26.144C109.064 25.8027 109.507 25.4133 109.87 24.976C110.232 24.5387 110.51 24.0747 110.702 23.584H110.766V24.448C110.766 24.7893 110.792 25.104 110.846 25.392C110.899 25.68 111 25.9307 111.15 26.144C111.299 26.3573 111.518 26.528 111.806 26.656C112.094 26.784 112.483 26.848 112.974 26.848C113.315 26.848 113.646 26.8053 113.966 26.72V25.696C113.582 25.76 113.283 25.792 113.07 25.792C112.792 25.792 112.579 25.7333 112.43 25.616C112.28 25.4987 112.174 25.344 112.11 25.152C112.046 24.96 112.008 24.7467 111.998 24.512C111.987 24.2773 111.982 24.0427 111.982 23.808V14.24C111.982 12.9813 111.528 11.9627 110.622 11.184C109.715 10.4053 108.27 10.016 106.286 10.016C104.302 10.016 102.771 10.4693 101.694 11.376C100.616 12.2827 100.035 13.6427 99.9495 15.456H101.166C101.251 13.984 101.747 12.8853 102.654 12.16C103.56 11.4347 104.75 11.072 106.222 11.072C107.054 11.072 107.758 11.1573 108.334 11.328C108.91 11.4987 109.379 11.7333 109.742 12.032C110.104 12.3307 110.371 12.672 110.542 13.056C110.712 13.44 110.798 13.856 110.798 14.304C110.798 14.88 110.766 15.36 110.702 15.744C110.638 16.128 110.478 16.4427 110.222 16.688C109.966 16.9333 109.587 17.1253 109.086 17.264C108.584 17.4027 107.896 17.504 107.022 17.568L105.134 17.728C104.472 17.792 103.784 17.8987 103.07 18.048C102.355 18.1973 101.704 18.448 101.118 18.8C100.531 19.152 100.046 19.632 99.6615 20.24C99.2775 20.848 99.0855 21.632 99.0855 22.592C99.0855 24.1707 99.5655 25.3387 100.526 26.096C101.486 26.8533 102.84 27.232 104.59 27.232ZM101.454 25.296C102.222 25.8827 103.278 26.176 104.622 26.176C106.008 26.176 107.107 25.9253 107.918 25.424C108.728 24.9227 109.347 24.3467 109.774 23.696C110.2 23.0453 110.472 22.416 110.59 21.808C110.707 21.2 110.766 20.7893 110.766 20.576V17.504C110.467 17.8667 110.014 18.112 109.406 18.24C108.798 18.368 108.12 18.464 107.374 18.528L105.326 18.72C104.728 18.784 104.131 18.8747 103.534 18.992C102.936 19.1093 102.398 19.3067 101.918 19.584C101.438 19.8613 101.048 20.24 100.75 20.72C100.451 21.2 100.302 21.824 100.302 22.592C100.302 23.808 100.686 24.7093 101.454 25.296ZM117.111 32.736V23.424H117.175C117.666 24.768 118.445 25.7387 119.511 26.336C120.578 26.9333 121.794 27.232 123.159 27.232C124.418 27.232 125.511 27.0187 126.439 26.592C127.367 26.1653 128.135 25.5733 128.743 24.816C129.351 24.0587 129.805 23.1573 130.103 22.112C130.402 21.0667 130.551 19.9147 130.551 18.656C130.551 17.504 130.402 16.4053 130.103 15.36C129.805 14.3147 129.351 13.3973 128.743 12.608C128.135 11.8187 127.367 11.1893 126.439 10.72C125.511 10.2507 124.418 10.016 123.159 10.016C122.263 10.016 121.469 10.1547 120.775 10.432C120.082 10.7093 119.49 11.056 118.999 11.472C118.509 11.888 118.114 12.3413 117.815 12.832C117.517 13.3227 117.303 13.7707 117.175 14.176H117.111V10.4H115.895V32.736H117.111ZM120.263 25.552C121.042 25.968 122.007 26.176 123.159 26.176C124.226 26.176 125.149 25.9733 125.927 25.568C126.706 25.1627 127.346 24.6187 127.847 23.936C128.349 23.2533 128.722 22.4587 128.967 21.552C129.213 20.6453 129.335 19.68 129.335 18.656C129.335 17.7173 129.218 16.7947 128.983 15.888C128.749 14.9813 128.386 14.1707 127.895 13.456C127.405 12.7413 126.77 12.1653 125.991 11.728C125.213 11.2907 124.269 11.072 123.159 11.072C122.071 11.072 121.143 11.2853 120.375 11.712C119.607 12.1387 118.983 12.704 118.503 13.408C118.023 14.112 117.677 14.9173 117.463 15.824C117.25 16.7307 117.143 17.6747 117.143 18.656C117.143 19.6373 117.239 20.5813 117.431 21.488C117.623 22.3947 117.949 23.1947 118.407 23.888C118.866 24.5813 119.485 25.136 120.263 25.552ZM133.441 10.4H134.657V26.848H133.441V10.4Z" fill="#36536B"/>
<circle cx="19.1421" cy="4.24264" r="3" transform="rotate(45 19.1421 4.24264)" fill="#36536B"/>
<circle cx="26.2131" cy="11.3137" r="3" transform="rotate(45 26.2131 11.3137)" fill="#36536B"/>
<circle cx="33.2842" cy="18.3847" r="3" transform="rotate(45 33.2842 18.3847)" fill="#36536B"/>
<circle cx="12.071" cy="11.3137" r="3" transform="rotate(45 12.071 11.3137)" fill="#36536B"/>
<circle opacity="0.5" cx="19.1421" cy="18.3847" r="3" transform="rotate(45 19.1421 18.3847)" fill="#36536B"/>
<circle opacity="0.5" cx="26.2131" cy="25.4558" r="3" transform="rotate(45 26.2131 25.4558)" fill="#36536B"/>
<circle cx="5" cy="18.3847" r="3" transform="rotate(45 5 18.3847)" fill="#36536B"/>
<circle opacity="0.5" cx="12.071" cy="25.4558" r="3" transform="rotate(45 12.071 25.4558)" fill="#36536B"/>
<circle opacity="0.25" cx="19.1421" cy="32.5268" r="3" transform="rotate(45 19.1421 32.5268)" fill="#36536B"/>
</svg>
